**ABCDEFGHIJKLMNOPQRSTUVWXYZabcdefghijklmnopqrstuvwxyz**************************
**PARASOLID !"#$%&'()*+,-./:;<=>?@[\]^_`{|}~0123456789**************************
**PART1;
MC=AMD64;
MC_MODEL=AMD64 Family 25 Model 80 Stepping 0, AuthenticAMD;
MC_ID=unknown;
OS=Windows_NT;
OS_RELEASE=unknown;
FRU=Parasolid Version 31.1, build 290,  3- 9-2020;
APPL=SOLIDWORKS 2020-2020196;
SITE=;
USER=unknown;
FORMAT=text;
GUISE=transmit;
KEY=K1+K2_Bed_500x500;
FILE=K1+K2_Bed_500x500.x_t;
DATE=Sun Jun 13 14:22:40 2021;
**PART2;
SCH=SCH_3101290_31100;
USFLD_SIZE=0;
**PART3;
**END_OF_HEADER*****************************************************************
T51 : TRANSMIT FILE created by modeller version 310129023 SCH_3101290_31100_1300
6222 0 12 34 CCCCCCI4 mesh1006 0 I8 polyline1008 0 CCCCCCCDI5 owner1040 0 CCCCCC
I13 boundary_mesh1006 0 I17 boundary_polyline1008 0 CCCA16 index_map_offset0 0 1
 dA9 index_map82 0 A17 node_id_index_map82 0 A20 schema_embedding_map82 0 A5 chi
ld12 0 A14 lowest_node_id0 0 1 dA16 mesh_offset_data206 0 Z1 786 2 3 0 0 0 0 0 0
 1e3 1e-8 0 4 0 1 0 1 1 5 6 7 8 0 0 9 10 11 0 0 0 0 0 0 0 81 255 2 2 763 12 1 13
 0 0 0 0 14 70 11 CI9 list_type0 0 1 uI10 notransmit0 0 1 lCCCDCCDI12 finger_ind
ex0 0 1 dI12 finger_block1012 0 CZ3 0 4 T1 0 0 9 20 1 15 15 13 255 5 94 0 1 0 16
 0 0 17 0 51 255 6 639 0 18 19 0 0 +.253 .0127 .253 0 -1 0 .001 0 0 -1 30 255 7
 546 0 10 20 0 0 +-.253 .0127 .254 0 -1 0 29 255 8 508 0 11 21 0 .254 .0127 -.25
3 19 8 CCCCCCCA5 owner12 0 Z9 28 0 1 17 0 22 V0 16 255 10 544 0 ?23 0 24 7 0 0 1
 18 255 11 506 0 25 0 26 8 ?1 17 255 25 0 27 28 29 11 30 31 0 32 +18 26 503 0 33
 11 34 21 ?1 17 33 0 35 32 36 26 37 38 0 28 +18 34 500 0 39 26 40 41 ?1 29 21 50
5 0 26 41 8 .254 .0127 .253 29 41 502 0 34 42 21 .253 .0127 .254 29 42 499 0 40
 43 41 -.253 .0127 .254 18 40 497 0 44 34 45 42 ?1 29 43 486 0 45 46 42 -.253 .0
127 -.254 18 45 484 0 47 40 48 43 ?1 29 46 483 0 48 49 43 .253 .0127 -.254 18 48
 481 0 50 45 51 46 ?1 29 49 460 0 51 52 46 .253 0 .254 18 51 458 0 53 48 54 49 ?
1 29 52 457 0 54 55 49 -.253 0 .254 18 54 455 0 56 51 57 52 ?1 29 55 454 0 57 58
 52 .254 0 -.253 18 57 452 0 59 54 60 55 ?1 29 58 451 0 60 61 55 .254 0 .253 18
 60 449 0 62 57 63 58 ?1 29 61 448 0 63 64 58 -.253 0 -.254 18 63 446 0 65 60 66
 61 ?1 29 64 445 0 66 67 61 .253 0 -.254 18 66 443 0 68 63 69 64 ?1 29 67 432 0
 69 70 64 -.254 .0127 .253 18 69 430 0 71 66 72 67 ?1 29 70 429 0 72 73 67 -.254
 .0127 -.253 18 72 427 0 74 69 75 70 ?1 29 73 426 0 75 76 70 -.254 0 .253 18 75
 424 0 77 72 78 73 ?1 29 76 423 0 78 79 73 -.254 0 -.253 18 78 421 0 80 75 81 76
 ?1 29 79 369 0 81 82 76 .244 .00726180729995788 .244 18 81 347 0 83 78 84 79 ?1
 29 82 404 0 84 0 79 -.244 .00726180729995788 .244 18 84 382 0 85 81 0 82 ?1 17
 85 0 86 85 85 84 0 0 0 0 ?15 255 86 390 0 85 87 88 14 255 87 387 89 ?90 91 86 5
 92 -0 0 90 91 22 15 88 391 0 93 87 0 17 93 0 88 93 93 0 94 95 0 0 +17 94 0 96 9
4 94 0 93 95 0 0 -16 95 381 0 ?93 97 98 99 0 0 1 16 97 345 0 ?100 101 95 102 0 0
 1 16 98 380 0 ?103 95 0 104 0 0 1 31 255 99 402 0 95 104 102 0 +-.244 .006 .244
 0 -1 0 0 0 -1 .0021 31 104 403 0 98 0 99 0 +-.244 -129812560709619e-32 .244 0 -
1 0 0 0 -1 .0021 31 102 368 0 97 99 105 0 +.244 -129812560709619e-32 .244 0 -1 0
 0 0 -1 .0021 31 105 367 0 101 102 106 0 +.244 .006 .244 0 -1 0 0 0 -1 .0021 16
 101 346 0 ?107 108 97 105 0 0 1 31 106 309 0 108 105 109 0 +-.244 .0127 -.244 0
 1 0 0 0 1 .00325 16 108 272 0 ?110 111 101 106 0 0 1 31 109 308 0 111 106 112 0
 +-.244 .0097 -.244 0 1 0 0 0 1 .00325 16 111 275 0 ?113 114 108 109 0 0 1 31 11
2 307 0 114 109 115 0 +-.244 .0097 -.244 0 1 0 0 0 1 .0017 16 114 274 0 ?116 117
 111 112 0 0 1 31 115 306 0 117 112 118 0 +-.244 0 -.244 0 1 0 0 0 1 .0017 16 11
7 273 0 ?119 120 114 115 0 0 1 31 118 251 0 120 115 121 0 +.244 .0127 -.244 0 1
 0 0 0 1 .00325 16 120 214 0 ?122 123 117 118 0 0 1 31 121 250 0 123 118 124 0 +
.244 .0097 -.244 0 1 0 0 0 1 .00325 16 123 217 0 ?125 126 120 121 0 0 1 31 124 2
49 0 126 121 127 0 +.244 .0097 -.244 0 1 0 0 0 1 .0017 16 126 216 0 ?128 129 123
 124 0 0 1 31 127 248 0 129 124 130 0 +.244 0 -.244 0 1 0 0 0 1 .0017 16 129 215
 0 ?131 132 126 127 0 0 1 31 130 193 0 132 127 133 0 +0 .0127 .244 0 1 0 0 0 1 .
00325 16 132 156 0 ?134 135 129 130 0 0 1 31 133 192 0 135 130 136 0 +0 .0097 .2
44 0 1 0 0 0 1 .00325 16 135 159 0 ?137 138 132 133 0 0 1 31 136 191 0 138 133 1
39 0 +0 .0097 .244 0 1 0 0 0 1 .0017 16 138 158 0 ?140 141 135 136 0 0 1 31 139
 190 0 141 136 142 0 +0 0 .244 0 1 0 0 0 1 .0017 16 141 157 0 ?143 144 138 139 0
 0 1 30 142 5 0 145 139 146 0 +-.254 .0127 -.254 0 0 1 16 145 428 0 ?147 148 149
 142 0 0 1 30 146 8 0 148 142 150 0 +.254 .0127 .254 1 0 -1092739197465704e-31 1
6 148 498 0 ?36 151 145 146 0 0 1 30 150 11 0 151 146 152 0 +.254 .0127 -.254 -1
092739197465704e-31 0 -1 16 151 504 0 ?32 153 148 150 0 0 1 30 152 14 0 153 150
 154 0 +.254 .0127 -.254 -1 0 1092739197465704e-31 16 153 482 0 ?155 156 151 152
 0 0 1 30 154 69 0 144 152 157 0 +-.254 0 -.254 0 0 1 16 144 422 0 ?158 159 141
 154 0 0 1 30 157 68 0 159 154 160 0 +.254 0 .254 1 0 -1092739197465704e-31 16 1
59 456 0 ?161 162 144 157 0 0 1 30 160 67 0 162 157 163 0 +.254 0 -.254 -1092739
197465704e-31 0 -1 16 162 450 0 ?29 149 159 160 0 0 1 30 163 66 0 149 160 164 0
 +.254 0 -.254 -1 0 1092739197465704e-31 16 149 444 0 ?165 145 162 163 0 0 1 30
 164 435 0 156 163 166 0 --.254 .0127 .253 0 -1 0 16 156 433 0 ?71 167 153 164 0
 0 1 30 166 440 0 167 164 168 0 +-.254 .0127 -.253 0 -1 0 16 167 438 0 ?169 170
 156 166 0 0 1 31 168 463 0 170 166 171 0 +.253 0 .253 0 -1 0 0 0 -1 .001 16 170
 461 0 ?53 172 167 168 0 0 1 31 171 468 0 172 168 173 0 +-.253 0 .253 0 -1 0 0 0
 -1 .001 16 172 466 0 ?77 174 170 171 0 0 1 31 173 473 0 174 171 175 0 +.253 0 -
.253 0 -1 0 0 0 -1 .001 16 174 471 0 ?59 176 172 173 0 0 1 31 175 478 0 176 173
 177 0 +-.253 0 -.253 0 -1 0 0 0 -1 .001 16 176 476 0 ?65 178 174 175 0 0 1 30 1
77 489 0 178 175 179 0 +.253 .0127 -.254 0 -1 0 16 178 487 0 ?180 181 176 177 0
 0 1 30 179 494 0 181 177 182 0 --.253 .0127 -.254 0 -1 0 16 181 492 0 ?47 38 17
8 179 0 0 1 31 182 511 0 38 179 183 0 -.253 .0127 .253 0 -1 0 0 0 -1 .001 16 38
 509 0 ?33 184 181 182 0 0 1 31 183 516 0 184 182 185 0 --.253 .0127 .253 0 -1 0
 0 0 -1 .001 16 184 514 0 ?44 186 38 183 0 0 1 31 185 521 0 186 183 187 0 -.253
 .0127 -.253 0 -1 0 0 0 -1 .001 16 186 519 0 ?50 188 184 185 0 0 1 31 187 526 0
 188 185 189 0 --.253 .0127 -.253 0 -1 0 0 0 -1 .001 16 188 524 0 ?74 190 186 18
7 0 0 1 30 189 531 0 190 187 191 0 +.254 .0127 .253 0 -1 0 16 190 529 0 ?192 31
 188 189 0 0 1 30 191 536 0 31 189 20 0 -.254 .0127 -.253 0 -1 0 16 31 534 0 ?25
 24 190 191 0 0 1 30 20 541 0 24 191 7 0 -.253 .0127 .254 0 -1 0 16 24 539 0 ?39
 10 31 20 0 0 1 17 39 0 193 194 161 34 195 24 0 36 +15 193 82 0 194 196 0 17 194
 0 193 23 39 40 36 148 0 197 -17 161 0 193 39 23 51 198 159 0 195 +17 195 0 199
 62 37 51 39 24 0 0 -17 36 0 35 33 44 34 194 148 0 37 +15 35 3 0 155 200 0 17 44
 0 35 36 147 40 201 184 0 194 +17 37 0 199 195 202 34 33 38 0 0 -15 199 628 0 37
 18 0 17 202 0 199 37 62 26 192 190 0 0 -17 62 0 199 202 195 60 53 170 0 192 -17
 192 0 27 29 28 60 202 190 0 203 +15 27 80 0 29 204 0 17 29 0 27 25 192 57 203 1
62 0 30 +17 28 0 27 192 25 26 32 151 0 202 -17 203 0 205 53 59 60 29 162 0 0 -15
 205 44 0 206 207 0 17 53 0 205 198 203 51 62 170 0 161 +17 59 0 205 203 208 57
 68 174 0 29 +17 208 0 205 59 65 66 165 149 0 0 -17 68 0 209 210 30 66 59 174 0
 180 -15 209 586 0 211 212 0 17 210 0 209 211 68 48 180 178 0 0 -17 30 0 209 68
 211 57 25 31 0 0 -17 180 0 213 165 214 66 210 178 0 208 +15 213 78 0 165 215 0
 17 165 0 213 47 180 63 208 149 0 216 +17 214 0 213 180 47 48 155 153 0 210 -17
 47 0 213 214 165 45 216 181 0 155 +17 155 0 35 74 50 45 214 153 0 217 +17 74 0
 35 147 155 72 217 188 0 218 +17 50 0 35 155 32 48 211 186 0 214 +17 217 0 219 2
16 220 45 74 188 0 0 -15 219 565 0 217 221 0 17 216 0 219 80 217 63 47 181 0 0 -
17 220 0 219 217 80 72 169 167 0 0 -17 80 0 219 220 216 78 65 176 0 169 -17 169
 0 222 158 218 78 220 167 0 206 +15 222 84 0 218 16 0 17 158 0 222 71 169 75 206
 144 0 223 +17 218 0 222 169 71 72 147 145 0 220 -17 206 0 205 65 77 78 158 144
 0 0 -17 65 0 205 208 206 63 80 176 0 165 +17 77 0 205 206 198 75 56 172 0 158 +
17 198 0 205 77 53 54 161 159 0 0 -17 56 0 224 197 223 54 77 172 0 23 -15 224 60
7 0 201 225 0 17 197 0 224 201 56 40 23 10 0 0 -17 223 0 224 56 201 75 71 156 0
 0 -17 23 0 193 161 194 54 197 10 0 198 +17 201 0 224 223 197 69 44 184 0 0 -17
 71 0 222 218 158 69 223 156 0 147 +17 147 0 35 44 74 69 218 145 0 201 +14 225 6
06 226 ?18 212 224 5 19 +0 0 18 212 22 81 1 226 765 227 225 228 0 89 229 230 14
 18 627 229 ?0 225 199 5 6 +0 0 0 225 22 14 212 585 231 ?225 221 209 5 232 +0 0
 225 221 22 51 19 618 0 225 232 6 0 +-.253 .0127 .253 0 -1 0 .001 0 0 -1 13 22 2
9 0 0 0 0 0 0 9 16 14 16 85 233 ?196 0 222 5 234 -0 0 196 0 22 81 1 233 768 227
 16 235 0 231 236 237 14 196 83 236 ?204 16 193 5 238 -0 0 204 16 22 50 255 234
 89 0 16 238 239 0 +-.254 .0127 -.254 1 0 0 0 0 -1 50 238 88 0 196 240 234 0 +.2
54 .0127 .254 -1092739197465704e-31 0 -1 -1 0 1092739197465704e-31 51 239 576 0
 221 234 232 0 +-.253 .0127 -.253 0 -1 0 .001 0 0 -1 14 221 564 241 ?212 90 219
 5 239 +0 0 212 90 22 51 232 597 0 212 239 19 0 +.253 .0127 -.253 0 -1 0 .001 0
 0 -1 81 1 241 770 227 221 242 0 236 243 244 14 90 392 243 ?221 87 96 5 245 -0 0
 221 87 22 81 1 243 771 227 90 246 0 241 247 248 15 96 395 0 94 90 249 51 245 40
1 0 90 0 92 0 +-.244 0 .244 0 -1 0 .0021 0 0 -1 52 255 92 400 0 87 245 250 0 +-.
244 .006 .244 0 -1 0 .0021 .857167300702111 .515038074910056 0 0 -1 51 250 366 0
 91 92 251 0 +.244 0 .244 0 -1 0 .0021 0 0 -1 14 91 357 247 ?87 252 253 5 250 -0
 0 87 252 22 52 251 365 0 252 250 254 0 +.244 .006 .244 0 -1 0 .0021 .8571673007
02111 .515038074910056 0 0 -1 14 252 352 255 ?91 256 257 5 251 -0 0 91 256 22 51
 254 305 0 256 251 258 0 +-.244 .0127 -.244 0 1 0 .00325 0 0 1 14 256 294 259 ?2
52 260 261 5 254 -0 0 252 260 22 50 258 304 0 260 254 262 0 +-.2423 .0097 -.244
 0 -1 0 0 0 -1 14 260 289 263 ?256 264 265 5 258 -0 0 256 264 22 51 262 303 0 26
4 258 266 0 +-.244 .0127 -.244 0 1 0 .0017 0 0 1 14 264 284 267 ?260 268 269 5 2
62 -0 0 260 268 22 51 266 247 0 268 262 270 0 +.244 .0127 -.244 0 1 0 .00325 0 0
 1 14 268 236 271 ?264 272 273 5 266 -0 0 264 272 22 50 270 246 0 272 266 274 0
 +.2457 .0097 -.244 0 -1 0 0 0 -1 14 272 231 275 ?268 276 277 5 270 -0 0 268 276
 22 51 274 245 0 276 270 278 0 +.244 .0127 -.244 0 1 0 .0017 0 0 1 14 276 226 27
9 ?272 280 281 5 274 -0 0 272 280 22 51 278 189 0 280 274 282 0 +0 .0127 .244 0
 1 0 .00325 0 0 1 14 280 178 283 ?276 284 285 5 278 -0 0 276 284 22 50 282 188 0
 284 278 286 0 +.0017 .0097 .244 0 -1 0 0 0 -1 14 284 173 287 ?280 288 289 5 282
 -0 0 280 288 22 51 286 187 0 288 282 290 0 +0 .0127 .244 0 1 0 .0017 0 0 1 14 2
88 168 291 ?284 207 292 5 286 -0 0 284 207 22 50 290 2 0 200 286 293 0 +0 .0127
 0 0 -1 0 0 0 -1 14 200 1 294 ?207 215 295 5 290 -0 0 207 215 22 50 293 65 0 207
 290 296 0 +0 0 0 0 -1 0 0 0 -1 14 207 43 297 ?288 200 298 5 293 +0 0 288 200 22
 50 296 86 0 215 293 240 0 +.254 .0127 -.254 1092739197465704e-31 0 1 1 0 -10927
39197465704e-31 14 215 79 299 ?200 204 213 5 296 -0 0 200 204 22 50 240 87 0 204
 296 238 0 +.254 .0127 -.254 -1 0 1092739197465704e-31 1092739197465704e-31 0 1
 14 204 81 300 ?215 196 27 5 240 -0 0 215 196 22 81 1 300 786 227 204 301 0 299
 0 302 80 255 1 227 303 304 9000 1 1 1 1 1 1 1 1 0 FFFFTFTFFFFFFF1 81 1 301 694
 305 204 0 300 306 307 308 81 1 299 785 227 215 307 0 297 300 309 82 255 1 302 7
14146027 81 1 307 695 305 215 0 299 301 310 311 81 1 297 784 227 207 312 0 294 2
99 313 82 1 309 713883883 81 1 312 697 305 207 0 297 310 314 315 81 1 294 783 22
7 200 310 0 291 297 316 82 1 313 712966379 81 1 310 696 305 200 0 294 307 312 31
7 81 1 291 782 227 288 314 0 287 294 318 82 1 316 707330283 81 1 314 698 305 288
 0 291 312 319 320 81 1 287 781 227 284 319 0 283 291 321 82 1 318 781385961 81
 1 319 699 305 284 0 287 314 322 323 81 1 283 780 227 280 322 0 279 287 324 82 1
 321 780796137 81 1 322 700 305 280 0 283 319 325 326 81 1 279 779 227 276 325 0
 275 283 327 82 1 324 780206313 81 1 325 701 305 276 0 279 322 328 329 81 1 275
 778 227 272 328 0 271 279 330 82 1 327 759496937 81 1 328 702 305 272 0 275 325
 331 332 81 1 271 777 227 268 331 0 267 275 333 82 1 330 758907113 81 1 331 703
 305 268 0 271 328 334 335 81 1 267 776 227 264 334 0 263 271 336 82 1 333 75831
7289 81 1 334 704 305 264 0 267 331 337 338 81 1 263 775 227 260 337 0 259 267 3
39 82 1 336 737542377 81 1 337 705 305 260 0 263 334 340 341 81 1 259 774 227 25
6 340 0 255 263 342 82 1 339 736952553 81 1 340 706 305 256 0 259 337 343 344 81
 1 255 773 227 252 343 0 247 259 345 82 1 342 736362729 81 1 343 707 305 252 0 2
55 340 346 347 81 1 247 772 227 91 346 0 243 255 348 82 1 345 823197930 81 1 346
 708 305 91 0 247 343 349 350 82 1 348 822608106 80 1 305 0 351 8001 0 0 0 0 3 5
 0 0 0 FFFFTFTFFFFFFF2 81 1 349 709 305 87 0 89 346 246 352 83 255 3 350 .898039
215686275 .917647058823529 .929411764705882 81 1 89 764 227 87 349 0 0 226 353 8
1 1 246 710 305 90 0 243 349 242 354 83 3 352 .866666666666667 .909803921568627
 1 81 1 242 711 305 221 0 241 246 355 356 83 3 354 .898039215686275 .91764705882
3529 .929411764705882 81 1 355 712 305 212 0 231 242 228 357 83 3 356 .866666666
666667 .909803921568627 1 81 1 231 767 227 212 355 0 229 233 358 81 1 228 713 30
5 225 0 226 355 359 360 83 3 357 .866666666666667 .909803921568627 1 81 1 359 71
4 305 18 0 229 228 0 361 83 3 360 .866666666666667 .909803921568627 1 81 1 229 7
66 227 18 359 0 226 231 362 83 3 361 .866666666666667 .909803921568627 1 82 1 36
2 839385323 82 1 358 835453163 82 1 353 807338218 79 255 15 351 SDL/TYSA_COLOUR8
3 3 347 .866666666666667 .909803921568627 1 83 3 344 .866666666666667 .909803921
568627 1 83 3 341 .866666666666667 .909803921568627 1 83 3 338 .866666666666667
 .909803921568627 1 83 3 335 .866666666666667 .909803921568627 1 83 3 332 .86666
6666666667 .909803921568627 1 83 3 329 .866666666666667 .909803921568627 1 83 3
 326 .866666666666667 .909803921568627 1 83 3 323 .866666666666667 .909803921568
627 1 83 3 320 .866666666666667 .909803921568627 1 83 3 317 .866666666666667 .90
9803921568627 1 83 3 315 .866666666666667 .909803921568627 1 83 3 311 .866666666
666667 .909803921568627 1 81 1 306 693 305 196 0 236 235 301 363 83 3 308 .86666
6666666667 .909803921568627 1 81 1 236 769 227 196 306 0 233 241 364 81 1 235 69
2 305 16 0 233 0 306 365 83 3 363 .866666666666667 .909803921568627 1 83 3 365 .
866666666666667 .909803921568627 1 82 1 364 714408171 79 14 304 SWEntUnchanged15
 298 372 0 366 207 367 17 366 0 298 366 366 0 103 98 0 0 -15 367 337 0 368 207 3
69 17 368 0 367 368 368 0 100 97 0 0 -15 369 255 0 119 207 370 17 119 0 369 119
 119 0 371 117 0 0 +15 370 197 0 131 207 372 17 131 0 370 131 131 0 373 129 0 0
 +15 372 139 0 143 207 205 17 143 0 372 143 143 0 374 141 0 0 +17 374 0 292 374
 374 0 143 141 0 0 -15 292 171 0 374 288 375 15 375 172 0 140 288 0 17 140 0 375
 140 140 0 376 138 0 0 +17 376 0 289 376 376 0 140 138 0 0 -15 289 176 0 376 284
 377 15 377 177 0 137 284 0 17 137 0 377 137 137 0 378 135 0 0 +17 378 0 285 378
 378 0 137 135 0 0 -15 285 181 0 378 280 379 15 379 182 0 134 280 0 17 134 0 379
 134 134 0 380 132 0 0 +17 380 0 381 380 380 0 134 132 0 0 -15 381 147 0 380 200
 35 17 373 0 281 373 373 0 131 129 0 0 -15 281 229 0 373 276 382 15 382 230 0 12
8 276 0 17 128 0 382 128 128 0 383 126 0 0 +17 383 0 277 383 383 0 128 126 0 0 -
15 277 234 0 383 272 384 15 384 235 0 125 272 0 17 125 0 384 125 125 0 385 123 0
 0 +17 385 0 273 385 385 0 125 123 0 0 -15 273 239 0 385 268 386 15 386 240 0 12
2 268 0 17 122 0 386 122 122 0 387 120 0 0 +17 387 0 388 387 387 0 122 120 0 0 -
15 388 205 0 387 200 381 17 371 0 269 371 371 0 119 117 0 0 -15 269 287 0 371 26
4 389 15 389 288 0 116 264 0 17 116 0 389 116 116 0 390 114 0 0 +17 390 0 265 39
0 390 0 116 114 0 0 -15 265 292 0 390 260 391 15 391 293 0 113 260 0 17 113 0 39
1 113 113 0 392 111 0 0 +17 392 0 261 392 392 0 113 111 0 0 -15 261 297 0 392 25
6 393 15 393 298 0 110 256 0 17 110 0 393 110 110 0 394 108 0 0 +17 394 0 295 39
4 394 0 110 108 0 0 -15 295 263 0 394 200 388 17 100 0 395 100 100 0 368 97 0 0
 +15 395 361 0 100 91 0 17 103 0 249 103 103 0 366 98 0 0 +15 249 396 0 103 90 0
 15 257 355 0 83 252 396 17 83 0 257 83 83 81 0 0 0 0 ?15 396 356 0 107 252 0 17
 107 0 396 107 107 0 397 101 0 0 +17 397 0 253 397 397 0 107 101 0 0 -15 253 360
 0 397 91 395 82 1 248 806748394 82 1 244 833487083 82 1 237 714670315 82 1 230
 837419243 17 32 0 35 50 33 11 28 151 0 211 +17 211 0 209 30 210 11 50 186 0 0 -
19 17 95 0 1 0 9 5 S0 74 4 CI16 index_map_offset0 0 1 dCCZ20 15 9 0 0 398 399 30
0 400 401 402 359 13 2 0 0 0 0 0 0 0 0 0 0 0 81 2 398 119 403 1 0 399 0 0 0 404
 81 2 399 123 405 1 398 400 0 0 0 406 81 1 400 663 407 1 399 401 0 0 408 81 2 40
1 688 409 1 400 402 0 0 0 410 81 2 402 691 411 1 401 13 0 0 0 0 81 2 13 762 412
 1 402 2 0 0 413 0 80 2 412 414 415 8004 0 0 0 0 3 5 0 0 0 FFTFFFFFFFFFFF2 3 83
 1 413 2680 79 16 415 SDL/TYSA_DENSITY80 2 411 416 417 9000 0 0 0 0 3 5 0 0 0 FF
TFFFFFFFFFFF9 1 79 16 417 BODY_RECIPE_200180 2 409 418 419 9000 0 0 0 0 3 5 0 0
 0 FFTFFFFFFFFFFF9 1 82 1 410 1 79 24 419 BODY_IN_LIGHTWEIGHT_PERM80 1 407 420 4
21 9000 1 1 1 1 1 1 1 1 0 FFTFFFFFFFFFFF1 82 1 408 141863 79 10 421 BODY_MATCH80
 2 405 422 423 9000 0 0 0 0 3 5 0 0 0 FFTFFFFFFFFFFF9 1 82 1 406 118 79 30 423 L
AST_BODY_MODIFYING_FEATURE_ID80 2 403 424 425 9000 0 0 0 0 3 5 0 0 0 FFTFFFFFFFF
FFT9 1 82 1 404 458 79 19 425 ENT_TIME_STAMP_200180 2 12 426 427 9000 0 0 0 0 3
 5 0 0 0 FFTFFFFFFFFFFF9 1 82 1 14 105 79 12 427 ATOM_ID_20011 0 
